<svg xmlns="http://www.w3.org/2000/svg" viewBox="0 0 119.65 132.25"><title>pasta</title><path d="M38.49,119.49c34.23,14.76,68.65,14.63,103,.29-1.78,16.49-25.19,35.17-46.46,36.37C67.56,157.7,43.53,141.86,38.49,119.49Z" transform="translate(-36.06 -24)"/><path d="M65.31,88C56.66,95.67,51,104.88,49.43,116.43c3.54-9.13,7.4-18,15.41-24.32a5.19,5.19,0,0,1,3.4-.86c-8.14,7.54-13.86,16.23-14.7,27.54,2.05-4.7,3.86-9.51,6.2-14.05s5.82-8.33,11-10.17c-7.88,7-12.44,15.48-13.12,26,1.83-4.46,3.4-9.06,5.56-13.36s5.2-7.71,10.12-9.29c-6.67,6.57-11.48,13.91-11.5,23.68,1.58-3.94,2.72-8.14,4.87-11.74s5.22-6.44,7.9-9.63l1.49,1.21c-2.52,3.21-5.45,6.2-7.45,9.72s-3,7.41-4.41,11.15l1.46.59c1-2.3,2.06-4.62,3.15-6.9,7-14.7,19.06-22.27,32.79-20.19,10.39,1.58,18.28,7.62,23.47,16.3,3.27,5.49,6.86,6.29,12.14,4.62a4.55,4.55,0,0,1,3.79.36c-3.32,1.69-6.51,3.74-10,5-18.09,6.54-36.88,7.41-55.72,5.37-9.5-1-18.91-3.61-28.12-6.33-5.15-1.53-11-4.22-11.13-10.71-.09-6.82,6.3-8.69,11.26-11.27a22.59,22.59,0,0,1,3-1.06c.5,5.92-8.63,8.63-4.15,16.43C50.09,103.13,54.72,93.25,65.31,88Zm4.33,36.37c5.49-12.67,11.81-23.73,26.68-24.47,14.36-.71,22.14,9.42,29.6,19.71-3.86-13.78-20.34-24-33.69-21.33C81.36,100.37,68.92,114.13,69.64,124.32ZM121.87,121c-3.45-11.73-16.63-20.36-27.79-18.71-9.64,1.42-20,12.38-20.4,22.93,5.11-10.93,10.39-20.47,22.72-21.15S115.27,112.38,121.87,121Zm-44.06,5.15c4.5-9.13,8.69-17.31,18.93-17.82,9.94-.5,15.28,7,20.88,13.76-2.82-9.47-13.7-16.91-22.24-15.71S78.26,116.51,77.81,126.13Zm4.42-.67c9.29-17.57,19.89-16.67,31.45-2.13-3.7-8.67-11.05-13.46-17.94-12.55C89.27,111.63,83.46,117.57,82.23,125.46Zm26.68-2.59c-2.4-5.16-7.31-8.38-12.63-7.8a11.3,11.3,0,0,0-9.35,8.62c3-2,6.66-6.26,10.36-6.35C101.29,117.24,105.38,121,108.91,122.87Zm-18.59.64,1.22,2.38c3.95-6.79,8.35-5.52,13.29-1.83-2.22-2.32-4.77-4.65-7.24-4.56S92.74,122.07,90.32,123.51Z" transform="translate(-36.06 -24)"/><path d="M86.12,93.16q-5-7.92-10-15.86L74.78,78l8.39,15.35-1,.61L73,79.39l-1.19.6Q76,87.55,80.29,95.11l-1.05.57L69.74,81l-1.26.72,9.27,16.77-1.15.74C72,92.88,67.13,86.65,62.92,80a9.89,9.89,0,0,1-.73-7.62c1.22-3.46.05-5.81-1.77-8.25-5.68-7.6-11.59-15-17-22.79a48.32,48.32,0,0,1-5.8-11.5c-.55-1.55.38-4.73,1.64-5.49s4.56-.18,5.65,1a48,48,0,0,1,7.38,10.55c4.19,8.31,7.9,16.86,11.79,25.32,1.42,3.09,3.06,5.26,7,6.13,2.8.62,5.83,3.44,7.33,6.09,3.41,6,5.93,12.53,8.82,18.85Z" transform="translate(-36.06 -24)"/><path d="M84.47,81.07a36.72,36.72,0,0,1,21.16,5.71c3.52,2.19,6.84,4.74,10.16,7.25,12,9.08,17.52,8.74,28.58-2.67-.25,1.84-.11,2.91-.54,3.64a16.36,16.36,0,0,1-21.43,6,66.38,66.38,0,0,1-10.74-7.22c-7.24-5.66-15-9.81-24.41-10.45a6.25,6.25,0,0,1-1.91-.44C85.12,82.78,85.05,82.31,84.47,81.07Z" transform="translate(-36.06 -24)"/><path d="M132.83,98.3c-8.08-19.88-22-26.41-42.37-18.62,6.66-6.61,20-6.4,26.94-3C125.81,80.81,133.28,90.47,132.83,98.3Z" transform="translate(-36.06 -24)"/><path d="M98.07,80c12.83-5.28,28.61,3.58,31.07,17.75-4.24-4.67-7.72-10.68-12.93-13.65S104.12,81.26,98.07,80Z" transform="translate(-36.06 -24)"/><path d="M155.7,98.23c-2.88,10.81-18.59,20-26.07,16.1,4.79-1.68,10.08-2.7,14.4-5.31S151.41,102.31,155.7,98.23Z" transform="translate(-36.06 -24)"/><path d="M120.1,102.44c12.3,4.75,20.75,1.29,27.19-8.83.52,4.63-3.21,9.07-8.78,11.56C131.5,108.3,124.87,107.68,120.1,102.44Z" transform="translate(-36.06 -24)"/><path d="M151.38,96.51c-3.17,10.87-18.28,18.23-25.74,12.44C137.1,109.94,145.21,105.25,151.38,96.51Z" transform="translate(-36.06 -24)"/><path d="M86.6,86.2c7.39-1.07,15.57,2.22,24.54,10.09Z" transform="translate(-36.06 -24)"/><path d="M123.68,97c-4.62-6.92-10.34-12-19.1-12.81C112.3,81.42,121.44,87.5,123.68,97Z" transform="translate(-36.06 -24)"/></svg>