<svg xmlns="http://www.w3.org/2000/svg" viewBox="0 0 136.11 146.77"><title>vegetarian</title><path d="M82.89,174.11c-1.1-7.59-2-15.21-3.35-22.75-1.7-9.58-3.46-19.17-5.69-28.64C66.44,91.41,55.44,61.59,36.54,35.16c-1.41-2-2.89-3.9-4.33-5.85a6.71,6.71,0,0,1-.25-.63c1.28.62,2.35,1.1,3.39,1.65,14,7.38,24.21,18.49,32,32a155,155,0,0,1,15.25,38.1c3.11,11.81,5.65,23.77,8.43,35.66a5.63,5.63,0,0,0,.56,1.61c9.92-30.69,23.5-59.49,42.33-86-1.35.43-2.73.76-4,1.3a31.34,31.34,0,0,0-12.27,9.65c-2.35,2.92-4.44,6-6.63,9.09-.39.54-.76,1.1-1.14,1.65l-.57-.13c.5-4.42.74-8.91,1.6-13.26a43.74,43.74,0,0,1,3.29-9.79c3.46-7.45,10-10.95,17.62-12.66,7.19-1.62,14.48-2.78,21.71-4.22a35.14,35.14,0,0,0,14.55-6c-.65,2.31-1.27,4.09-1.63,5.92-1.44,7.29-2.71,14.61-4.21,21.89-1.35,6.56-3.33,12.87-8.39,17.69-3.93,3.74-8.8,5.68-14,6.86-4.15,1-8.38,1.59-12.58,2.27a3.27,3.27,0,0,0-2.56,1.68A148.27,148.27,0,0,0,111.66,112a316.47,316.47,0,0,0-11.15,42.41q-1.89,9.5-3.77,19a3.15,3.15,0,0,0,0,.68Z" transform="translate(-31.96 -27.34)"/></svg>